<?xml version="1.0" encoding="utf-8"?>
<!-- Generator: Adobe Illustrator 16.0.0, SVG Export Plug-In . SVG Version: 6.00 Build 0)  -->
<!DOCTYPE svg PUBLIC "-//W3C//DTD SVG 1.1//EN" "http://www.w3.org/Graphics/SVG/1.1/DTD/svg11.dtd">
<svg version="1.1" id="Layer_1" xmlns="http://www.w3.org/2000/svg" xmlns:xlink="http://www.w3.org/1999/xlink" x="0px" y="0px"
	 width="586px" height="123.999px" viewBox="0 0 586 123.999" enable-background="new 0 0 586 123.999" xml:space="preserve">
<g>
	<g>
		<path d="M169.375,32.834c5.242,0,9.722,1.723,13.437,5.168c3.685,3.415,5.527,7.535,5.527,12.358
			c0,4.644-1.737,8.658-5.213,12.042c-3.475,3.356-7.7,5.168-12.672,5.438c-0.18,0-0.3,0-0.359,0h-0.541
			c-0.06,0.03-0.12,0.045-0.179,0.045c0.09,0,0.044-0.015-0.135-0.045h-17.66v26.783c0,0.749-0.27,1.378-0.81,1.887
			c-0.509,0.539-1.138,0.809-1.887,0.809s-1.378-0.27-1.887-0.809c-0.539-0.509-0.809-1.138-0.809-1.887V35.53
			c0-0.748,0.27-1.377,0.809-1.887c0.509-0.539,1.138-0.809,1.887-0.809H169.375z M169.735,62.493
			c3.655-0.09,6.77-1.303,9.347-3.641c2.607-2.365,3.909-5.197,3.909-8.492c0-3.355-1.333-6.217-4-8.583
			c-2.667-2.366-5.871-3.549-9.616-3.549h-17.794v24.266H169.735z"/>
		<path d="M208.163,97.319c-0.749,0-1.378-0.27-1.887-0.809c-0.539-0.509-0.809-1.138-0.809-1.887V35.486
			c0-0.749,0.27-1.377,0.809-1.887c0.54-0.569,1.169-0.838,1.887-0.809l35.681,0.089c0.748,0,1.377,0.27,1.887,0.809
			c0.539,0.54,0.809,1.169,0.809,1.888c0,0.749-0.27,1.393-0.809,1.932c-0.51,0.51-1.139,0.764-1.887,0.764l-32.984-0.09v24.177
			h24.67c0.749,0,1.378,0.27,1.887,0.809c0.54,0.51,0.81,1.138,0.81,1.887s-0.27,1.379-0.81,1.888
			c-0.509,0.539-1.138,0.809-1.887,0.809h-24.67v24.177h32.984c0.748,0,1.377,0.27,1.887,0.809c0.539,0.51,0.809,1.139,0.809,1.888
			s-0.27,1.378-0.809,1.887c-0.51,0.539-1.139,0.809-1.887,0.809H208.163z"/>
		<path d="M286.952,32.969c5.183,0,9.618,1.692,13.301,5.078c3.655,3.386,5.482,7.475,5.482,12.268
			c0,4.255-1.498,7.999-4.493,11.235c-2.937,3.206-6.636,5.153-11.1,5.841L302.949,93.5c0.329,0.659,0.375,1.334,0.135,2.022
			c-0.239,0.689-0.689,1.198-1.348,1.527c-0.359,0.18-0.749,0.27-1.168,0.27c-1.108,0-1.903-0.494-2.382-1.482L284.3,67.661h-15.008
			v26.559c0,0.718-0.27,1.348-0.809,1.887c-0.51,0.51-1.14,0.765-1.888,0.765c-0.719,0-1.349-0.255-1.888-0.765
			c-0.51-0.539-0.764-1.169-0.764-1.887V35.621c0-0.749,0.253-1.377,0.764-1.887c0.539-0.509,1.168-0.764,1.888-0.764H286.952z
			 M300.434,50.314c0-3.325-1.318-6.156-3.955-8.493c-2.636-2.366-5.812-3.549-9.527-3.549h-17.66v24.041h17.975
			c3.655-0.06,6.755-1.258,9.302-3.595C299.145,56.382,300.434,53.58,300.434,50.314z"/>
		<path d="M328.661,97.319c-0.75,0-1.378-0.254-1.888-0.764c-0.539-0.539-0.809-1.183-0.809-1.932V35.53
			c0-0.748,0.27-1.393,0.809-1.932c0.51-0.54,1.138-0.809,1.888-0.809h14.964c8.868,0,16.447,3.145,22.739,9.437
			c6.291,6.291,9.436,13.87,9.436,22.738c0,8.868-3.145,16.447-9.436,22.738c-6.292,6.291-13.871,9.438-22.739,9.438l-14.919,0.179
			H328.661z M331.357,91.881l12.224-0.179c7.398,0,13.72-2.607,18.963-7.819c5.242-5.242,7.864-11.55,7.864-18.919
			c0-7.37-2.622-13.676-7.864-18.918c-5.243-5.213-11.549-7.818-18.919-7.818h-12.268V91.881z"/>
		<path d="M389.771,97.094c-0.689-0.27-1.168-0.748-1.438-1.438c-0.3-0.688-0.3-1.378,0-2.067l6.247-15.054v-0.045l18.198-43.904
			c0.061-0.149,0.135-0.314,0.226-0.495l0.179-0.18c0.091-0.12,0.15-0.194,0.181-0.225c0.029-0.029,0.104-0.089,0.225-0.179
			c0.149-0.12,0.209-0.164,0.18-0.135c0.299-0.209,0.613-0.344,0.944-0.404h0.224c0.181-0.029,0.285-0.045,0.315-0.045
			c0.029,0,0.118,0.016,0.27,0.045c0.179,0,0.254,0,0.224,0c0.36,0.061,0.689,0.195,0.989,0.404l0.18,0.135
			c0.119,0.121,0.194,0.179,0.225,0.179c0.029,0.031,0.091,0.105,0.18,0.225c0.119,0.15,0.181,0.21,0.181,0.18
			c0.089,0.18,0.164,0.345,0.224,0.495l18.2,43.904v0.045l6.246,15.054c0.299,0.689,0.299,1.379,0,2.067
			c-0.27,0.689-0.749,1.168-1.438,1.438c-0.33,0.151-0.674,0.225-1.033,0.225c-1.198,0-2.022-0.554-2.472-1.662l-5.572-13.392
			H398.85l-5.572,13.392c-0.45,1.108-1.274,1.662-2.472,1.662c-0.359,0-0.54,0-0.54,0S390.101,97.246,389.771,97.094z
			 M429.451,76.874l-14.199-34.242l-14.201,34.242H429.451z"/>
		<path d="M505.585,96.375l-0.045-0.045l-0.045-0.045l-41.117-52.98v51.318c0,0.749-0.271,1.378-0.81,1.887
			c-0.51,0.539-1.139,0.809-1.887,0.809c-0.749,0-1.379-0.27-1.888-0.809c-0.539-0.509-0.809-1.138-0.809-1.887V35.441
			c0-1.288,0.6-2.142,1.797-2.562c1.229-0.418,2.232-0.119,3.012,0.899l41.162,52.981V35.441c0-0.749,0.254-1.378,0.764-1.888
			c0.539-0.539,1.168-0.809,1.888-0.809c0.748,0,1.393,0.27,1.932,0.809c0.509,0.51,0.765,1.139,0.765,1.888v59.183
			c0-0.061,0,0,0,0.179c0,0.091-0.016,0.18-0.045,0.27c0,0.062-0.016,0.136-0.045,0.226c-0.031,0.119-0.061,0.21-0.091,0.27
			c-0.029,0.06-0.06,0.135-0.089,0.225c-0.03,0.09-0.075,0.164-0.135,0.225c-0.03,0.061-0.075,0.135-0.135,0.225
			c-0.061,0.09-0.121,0.165-0.181,0.226c-0.029,0.029-0.089,0.089-0.18,0.179c-0.149,0.12-0.194,0.15-0.135,0.091
			c0.061-0.029,0.029,0-0.09,0.089c-0.029,0.03-0.075,0.061-0.135,0.09c-0.089,0.062-0.18,0.105-0.27,0.135
			c-0.06,0.03-0.12,0.062-0.18,0.091c-0.09,0.029-0.195,0.06-0.314,0.089c-0.09,0.03-0.15,0.046-0.18,0.046
			c-0.18,0.029-0.345,0.044-0.494,0.044c-0.18,0-0.359-0.015-0.539-0.044l-0.181-0.046c-0.149-0.06-0.27-0.104-0.358-0.135
			c-0.03-0.029-0.09-0.074-0.181-0.135c-0.119-0.06-0.225-0.118-0.313-0.18c-0.031-0.029-0.091-0.073-0.181-0.135
			c-0.09-0.09-0.135-0.135-0.135-0.135S505.675,96.466,505.585,96.375z"/>
		<path d="M529.275,97.094c-0.689-0.27-1.168-0.748-1.438-1.438c-0.3-0.688-0.3-1.378,0-2.067l6.246-15.054v-0.045l18.199-43.904
			c0.06-0.149,0.135-0.314,0.225-0.495l0.18-0.18c0.09-0.12,0.15-0.194,0.181-0.225c0.029-0.029,0.104-0.089,0.224-0.179
			c0.15-0.12,0.21-0.164,0.181-0.135c0.299-0.209,0.613-0.344,0.943-0.404h0.224c0.181-0.029,0.285-0.045,0.315-0.045
			c0.029,0,0.119,0.016,0.27,0.045c0.18,0,0.255,0,0.225,0c0.359,0.061,0.688,0.195,0.989,0.404l0.179,0.135
			c0.12,0.121,0.195,0.179,0.226,0.179c0.029,0.031,0.09,0.105,0.179,0.225c0.12,0.15,0.181,0.21,0.181,0.18
			c0.09,0.18,0.164,0.345,0.225,0.495l18.199,43.904v0.045l6.247,15.054c0.299,0.689,0.299,1.379,0,2.067
			c-0.27,0.689-0.749,1.168-1.438,1.438c-0.33,0.151-0.674,0.225-1.034,0.225c-1.197,0-2.021-0.554-2.471-1.662l-5.572-13.392
			h-32.804l-5.572,13.392c-0.45,1.108-1.274,1.662-2.473,1.662c-0.358,0-0.539,0-0.539,0S529.604,97.246,529.275,97.094z
			 M568.955,76.874l-14.2-34.242l-14.2,34.242H568.955z"/>
	</g>
	<path fill-rule="evenodd" clip-rule="evenodd" fill="#282828" d="M106.178,28.713L66.654,5.806
		c-2.105-1.214-4.376-1.821-6.722-1.821c-2.35,0-4.659,0.607-6.765,1.821L12.981,28.713C8.768,31.145,5.666,35.641,5.666,40.5
		v45.816c0,4.861,3.039,9.355,7.25,11.787l37.75,21.539V59.667h-12V43.744c8-0.977,15.054-6.077,16.091-16.077h11.909v92.124
		l38.379-21.688c4.212-2.432,7.621-6.926,7.621-11.787V40.5C112.666,35.641,110.388,31.145,106.178,28.713z"/>
	<path d="M112.666,86.316V54.003L67.844,29.278l-1.178,11.964v78.55l38.379-21.688C109.257,95.671,112.666,91.177,112.666,86.316z"
		/>
</g>
</svg>
